<svg id="reg" enable-background="new 0 0 24 24" height="512" viewBox="0 0 24 24" width="512" xmlns="http://www.w3.org/2000/svg"><path d="m15.507 8.515v-8.015h7.993v8.015z" fill="#ed8120"/><path d="m15.507 15.507h7.992v7.993h-7.992z" fill="#4ab046"/><path d="m.5 15.507h8.015v7.993h-8.015z" fill="#f0ba1e"/><path d="m8.511 8.511h7v7h-7z" fill="#b01d22"/><path d="m.5.5h8.015v8.014h-8.015z" fill="#427bb6"/><path d="m23.25 0h-7.819c-.414 0-.75.336-.75.75v7.09h-5.355v-7.09c0-.414-.336-.75-.75-.75h-7.826c-.414 0-.75.336-.75.75v7.84c0 .414.336.75.75.75h7.076v5.34h-7.076c-.414 0-.75.336-.75.75v7.819c0 .415.336.751.75.751h7.826c.414 0 .75-.336.75-.75v-7.069h5.354v7.069c0 .414.336.75.75.75h7.819c.414 0 .75-.336.75-.75v-7.819c0-.414-.336-.75-.75-.75h-7.069v-5.341h7.069c.414 0 .75-.336.75-.75v-7.84c.001-.414-.335-.75-.749-.75zm-21.75 1.5h6.326v6.34h-6.326zm6.326 21h-6.326v-6.319h6.326zm1.5-13.16h5.354v5.34h-5.354zm13.174 13.16h-6.319v-6.319h6.319zm0-14.66h-6.319v-6.34h6.319z"/></svg>